<svg width="241" height="57" viewBox="0 0 241 57" fill="none" xmlns="http://www.w3.org/2000/svg">
<path d="M32.1278 43.9099H21.0198L13.0305 33.2292L8.90777 37.6724V43.9099H0V0.695557H8.90777V24.7059L19.2681 13.0425H31.6792L19.0759 26.6285L32.1064 43.9099H32.1278Z" fill="black"/>
<path d="M51.867 13.0427H60.7321V43.9101H51.867V41.5603C50.4999 42.5857 48.9832 43.3761 47.3384 43.9315C45.6935 44.4869 44.0487 44.7646 42.3825 44.7646C39.1355 44.7646 36.3372 44.0596 33.9874 42.6711C31.6376 41.2826 29.8433 39.3387 28.583 36.9035C27.344 34.447 26.7031 31.67 26.7031 28.5298C26.7031 25.3897 27.3226 22.5913 28.583 20.1134C29.8219 17.6141 31.6376 15.6702 33.9874 14.2817C36.3372 12.8932 39.1355 12.1882 42.3825 12.1882C44.0914 12.1882 45.7576 12.4873 47.3597 13.0427C48.9832 13.6195 50.4785 14.4312 51.8457 15.4565V13.0427H51.867ZM49.4318 34.1479C51.0126 32.6739 51.8029 30.7514 51.8029 28.4016C51.8029 26.0519 51.0126 24.2789 49.4318 22.8476C47.851 21.4164 45.9071 20.6901 43.5787 20.6901C41.2503 20.6901 39.3492 21.4164 37.8325 22.8476C36.3372 24.2789 35.5895 26.18 35.5895 28.5298C35.5895 30.8796 36.3372 32.7594 37.8325 34.212C39.3278 35.6432 41.2503 36.3695 43.5787 36.3695C45.9071 36.3695 47.851 35.6218 49.4318 34.1479Z" fill="black"/>
<path d="M104.267 13.3414C106.147 14.1318 107.727 15.4989 109.073 17.4855C110.397 19.4508 111.06 22.121 111.06 25.4534V43.9097H102.216V25.4534C102.216 23.4881 101.661 22.0569 100.528 21.2024C99.4176 20.348 98.0719 19.8994 96.5338 19.8994C95.2521 19.8994 94.1413 20.2839 93.2014 21.0315C92.2615 21.8006 91.6634 22.9754 91.3643 24.5775V43.9097H82.4566V25.4534C82.4566 23.4881 81.9012 22.0569 80.769 21.2024C79.6582 20.348 78.3124 19.8994 76.7744 19.8994C75.4927 19.8994 74.3605 20.2839 73.3993 21.0743C72.438 21.8646 71.8399 23.1036 71.5836 24.8339V43.9097H62.6758V13.0423H71.5836V15.0076C73.8693 13.1064 76.3472 12.1665 78.996 12.1665C80.8331 12.1665 82.6915 12.551 84.5714 13.3414C86.4725 14.1318 88.0106 15.4135 89.2068 17.2292C90.2963 15.798 91.6634 14.5804 93.3296 13.6191C94.9958 12.6578 96.7688 12.1665 98.6913 12.1665C100.614 12.1665 102.366 12.551 104.245 13.3414H104.267Z" fill="black"/>
<path d="M132.612 13.0425H141.905L131.438 43.4827C129.686 47.9259 127.336 51.2369 124.367 53.4158C121.398 55.5947 117.852 56.5346 113.729 56.2569V47.7336C113.985 47.7763 114.348 47.7977 114.861 47.7977C116.613 47.7977 118.065 47.3491 119.219 46.4306C120.372 45.5334 121.355 44.273 122.145 42.6709L108.688 13.0425H118.3L126.46 30.7512L132.634 13.0425H132.612Z" fill="black"/>
<path d="M148.656 42.6287C146.135 41.1761 144.149 39.1895 142.675 36.6688C141.201 34.1481 140.453 31.4352 140.453 28.5301C140.453 25.6249 141.201 22.8479 142.675 20.3486C144.149 17.8493 146.135 15.884 148.656 14.4314C151.177 12.9789 153.932 12.2312 156.923 12.2312C159.913 12.2312 162.605 12.9575 165.126 14.4314C167.646 15.884 169.633 17.8706 171.107 20.3486C172.581 22.8479 173.329 25.5608 173.329 28.5301C173.329 31.4993 172.581 34.1695 171.107 36.6688C169.633 39.1895 167.646 41.1761 165.126 42.6287C162.605 44.0812 159.871 44.8289 156.923 44.8289C153.975 44.8289 151.177 44.1026 148.656 42.6287ZM162.221 33.8063C163.716 32.3538 164.464 30.5808 164.464 28.5301C164.464 26.4793 163.716 24.7063 162.221 23.211C160.725 21.7371 158.931 20.9894 156.859 20.9894C154.787 20.9894 153.014 21.7371 151.518 23.211C150.044 24.685 149.297 26.458 149.297 28.5301C149.297 30.6021 150.044 32.3538 151.518 33.8063C152.992 35.2589 154.765 36.0066 156.859 36.0066C158.952 36.0066 160.725 35.2803 162.221 33.8063Z" fill="black"/>
<path d="M156.922 46.0462C153.717 46.0462 150.727 45.2558 148.035 43.6965C145.344 42.1371 143.186 39.9796 141.606 37.3094C140.025 34.6178 139.234 31.6699 139.234 28.5511C139.234 25.4323 140.046 22.4204 141.627 19.7502C143.208 17.1013 145.365 14.9438 148.057 13.3844C150.748 11.825 153.739 11.0347 156.943 11.0347C160.147 11.0347 163.074 11.825 165.765 13.3844C168.457 14.9438 170.614 17.08 172.195 19.7502C173.776 22.4204 174.588 25.3896 174.588 28.5511C174.588 31.7126 173.797 34.6178 172.217 37.3094C170.636 40.0009 168.478 42.1371 165.787 43.6965C163.095 45.2558 160.126 46.0462 156.964 46.0462H156.922ZM156.922 13.4485C154.166 13.4485 151.603 14.1321 149.274 15.4779C146.946 16.8236 145.087 18.6821 143.72 20.9678C142.375 23.2535 141.67 25.7955 141.67 28.5298C141.67 31.264 142.353 33.7633 143.72 36.0704C145.087 38.3988 146.946 40.2359 149.274 41.5817C151.581 42.9274 154.166 43.611 156.922 43.611C159.677 43.611 162.177 42.9274 164.505 41.5817C166.812 40.2359 168.692 38.3774 170.059 36.0704C171.426 33.7633 172.11 31.2213 172.11 28.5298C172.11 25.8382 171.426 23.2535 170.059 20.9678C168.692 18.6821 166.833 16.8236 164.505 15.4779C162.198 14.1321 159.656 13.4485 156.922 13.4485ZM156.858 37.2239C154.444 37.2239 152.372 36.3694 150.663 34.6819C148.954 32.9943 148.099 30.9223 148.099 28.5511C148.099 26.18 148.954 24.0866 150.663 22.3776C152.372 20.6687 154.465 19.7929 156.879 19.7929C159.293 19.7929 161.386 20.6687 163.117 22.3776C164.847 24.0866 165.723 26.1586 165.723 28.5511C165.723 30.9436 164.847 33.0157 163.117 34.7033C161.386 36.3908 159.293 37.2453 156.9 37.2453L156.858 37.2239ZM156.858 22.2281C155.106 22.2281 153.653 22.8262 152.414 24.0866C151.154 25.3469 150.556 26.7995 150.556 28.5298C150.556 30.2601 151.154 31.7126 152.414 32.9516C153.653 34.1906 155.127 34.7887 156.879 34.7887C158.631 34.7887 160.105 34.1906 161.386 32.9516C162.647 31.7126 163.266 30.2814 163.266 28.5511C163.266 26.8208 162.647 25.3683 161.386 24.1079C160.126 22.8476 158.652 22.2495 156.9 22.2495L156.858 22.2281Z" fill="#E95546"/>
<path d="M185.078 42.543C182.557 41.0904 180.571 39.1038 179.097 36.5831C177.623 34.0624 176.875 31.3495 176.875 28.4444C176.875 25.5392 177.623 22.7622 179.097 20.2629C180.571 17.7636 182.557 15.7983 185.078 14.3458C187.598 12.8932 190.354 12.1455 193.345 12.1455C196.335 12.1455 199.027 12.8718 201.548 14.3458C204.068 15.7983 206.055 17.785 207.529 20.2629C209.003 22.7622 209.75 25.4751 209.75 28.4444C209.75 31.4136 209.003 34.0838 207.529 36.5831C206.055 39.1038 204.068 41.0904 201.548 42.543C199.027 43.9956 196.293 44.7432 193.345 44.7432C190.397 44.7432 187.598 44.0169 185.078 42.543ZM198.642 33.7207C200.138 32.2681 200.885 30.4951 200.885 28.4444C200.885 26.3937 200.138 24.6206 198.642 23.1253C197.147 21.6514 195.353 20.9037 193.281 20.9037C191.209 20.9037 189.436 21.6514 187.94 23.1253C186.466 24.5993 185.719 26.3723 185.719 28.4444C185.719 30.5164 186.466 32.2681 187.94 33.7207C189.414 35.1732 191.187 35.9209 193.281 35.9209C195.374 35.9209 197.147 35.1946 198.642 33.7207Z" fill="black"/>
<path d="M193.344 45.9608C190.139 45.9608 187.149 45.1704 184.457 43.611C181.766 42.0516 179.608 39.8941 178.027 37.2239C176.447 34.5324 175.656 31.5845 175.656 28.4657C175.656 25.3469 176.468 22.3349 178.049 19.6647C179.63 17.0159 181.787 14.8584 184.479 13.299C187.17 11.7396 190.161 10.9492 193.365 10.9492C196.569 10.9492 199.496 11.7396 202.187 13.299C204.879 14.8584 207.036 16.9945 208.617 19.6647C210.198 22.3349 211.01 25.3042 211.01 28.4657C211.01 31.6272 210.219 34.5324 208.638 37.2239C207.058 39.9155 204.9 42.0516 202.209 43.611C199.517 45.1704 196.548 45.9608 193.386 45.9608H193.344ZM193.344 13.3631C190.588 13.3631 188.025 14.0466 185.696 15.3924C183.368 16.7382 181.509 18.5966 180.142 20.8823C178.796 23.168 178.091 25.71 178.091 28.4443C178.091 31.1786 178.775 33.6779 180.142 35.9849C181.509 38.3133 183.368 40.1504 185.696 41.4962C188.003 42.842 190.588 43.5256 193.344 43.5256C196.099 43.5256 198.599 42.842 200.927 41.4962C203.234 40.1504 205.114 38.292 206.481 35.9849C207.848 33.6779 208.532 31.1359 208.532 28.4443C208.532 25.7528 207.848 23.168 206.481 20.8823C205.114 18.5966 203.255 16.7382 200.927 15.3924C198.62 14.0466 196.057 13.3631 193.344 13.3631ZM193.28 37.1171C190.866 37.1171 188.794 36.2626 187.085 34.5751C185.376 32.8875 184.521 30.8154 184.521 28.4443C184.521 26.0732 185.376 23.9798 187.085 22.2708C188.794 20.5619 190.887 19.6861 193.301 19.6861C195.715 19.6861 197.808 20.5619 199.538 22.2708C201.269 23.9798 202.145 26.0518 202.145 28.4443C202.145 30.8368 201.269 32.9089 199.538 34.5964C197.808 36.284 195.715 37.1385 193.322 37.1385L193.28 37.1171ZM193.28 22.1213C191.528 22.1213 190.075 22.7194 188.815 23.9798C187.555 25.2401 186.957 26.6927 186.957 28.423C186.957 30.1532 187.555 31.6058 188.815 32.8448C190.054 34.0838 191.528 34.6819 193.28 34.6819C195.031 34.6819 196.505 34.0838 197.787 32.8448C199.047 31.6058 199.667 30.1746 199.667 28.4443C199.667 26.714 199.047 25.2614 197.787 24.0011C196.526 22.7408 195.053 22.1427 193.301 22.1427L193.28 22.1213Z" fill="#E95546"/>
<path d="M234.208 13.4061C236.066 14.1965 237.668 15.5636 239.014 17.5502C240.338 19.5155 241.001 22.1857 241.001 25.5181V43.9744H232.093V25.5181C232.093 23.5528 231.537 22.1216 230.448 21.2671C229.337 20.4127 228.034 19.9641 226.496 19.9641C224.958 19.9641 223.676 20.4981 222.672 21.5662C221.647 22.6343 221.134 24.3432 221.134 26.693V43.9744H212.227V13.107H221.134V15.2005C223.505 13.2352 226.026 12.2312 228.675 12.2312C230.512 12.2312 232.349 12.6157 234.229 13.4061H234.208Z" fill="black"/>
</svg>
